<svg xmlns="http://www.w3.org/2000/svg" version="1.1" xmlns:xlink="http://www.w3.org/1999/xlink" xmlns:svgjs="http://svgjs.com/svgjs" width="1440" height="700" preserveAspectRatio="none" viewBox="0 0 1440 700"><g mask="url(&quot;#SvgjsMask1040&quot;)" fill="none"><rect width="1440" height="700" x="0" y="0" fill="rgba(17, 20, 163, 1)"></rect><path d="M0,566.46C104.186,567.827,169.594,456.618,257.083,400.03C344.244,343.654,457.836,322.153,513.339,234.434C571.325,142.791,596.385,21.904,561.256,-80.696C527.25,-180.015,409.909,-216.901,333.984,-289.399C267.037,-353.324,225.341,-442.557,141.408,-481.59C50.541,-523.848,-56.837,-548.694,-151.232,-515.049C-244.361,-481.855,-299.385,-388.852,-352.586,-305.518C-399.724,-231.681,-426.324,-149.794,-439.682,-63.217C-453.159,24.133,-463.509,114.59,-430.025,196.386C-395.873,279.813,-321.113,334.54,-252.785,393.342C-173.775,461.337,-104.23,565.093,0,566.46" fill="#0c0e75"></path><path d="M1440 1209.951C1553.771 1240.0810000000001 1682.341 1294.411 1784.894 1236.6660000000002 1887.214 1179.0520000000001 1896.976 1037.606 1940.068 928.373 1980.7559999999999 825.234 2052.235 723.798 2030.075 615.16 2008.152 507.682 1906.616 439.772 1825.372 366.073 1752.939 300.366 1680.339 225.85000000000002 1583.785 210.312 1491.093 195.39600000000002 1407.814 257.162 1317.975 284.423 1229.134 311.381 1128.5439999999999 308.424 1058.738 369.634 985.034 434.262 954.184 531.922 927.992 626.384 898.7 732.026 842.948 852.794 898.574 947.261 954.75 1042.662 1095.8229999999999 1032.231 1195.43 1080.558 1280.124 1121.65 1349.001 1185.8519999999999 1440 1209.951" fill="#161ad1"></path></g><defs><mask id="SvgjsMask1040"><rect width="1440" height="700" fill="#ffffff"></rect></mask></defs></svg>